# xmcd CD database file
#
# Track frame offsets:
#	150
#	45373
#	94567
#	120780
#	143242
#	176891
#	204800
#	233865
#	250254
#	285310
#
# Disc length: 4390 seconds
#
# Revision: 0
# Processed by: cddbd v1.5.2PL0 Copyright (c) Steve Scherf et al.
# Submitted via: CDex 1.51
#
DISCID=7911240a
DTITLE=Jimmy THACKERY and The Drivers - Live In Detroit (Big Love Buick)
DYEAR=2010
DGENRE=Blues
TTITLE0=Don't Lose Your Cool
TTITLE1=Solid Ice
TTITLE2=Daze In May
TTITLE3=Big Long Buick
TTITLE4=Land Locked
TTITLE5=Detroit Iron
TTITLE6=Love My Baby
TTITLE7=Bomb The Moon
TTITLE8=Eat It All
TTITLE9=Blinking Of An Eye
EXTD=YEAR: 2010
EXTT0=
EXTT1=
EXTT2=
EXTT3=
EXTT4=
EXTT5=
EXTT6=
EXTT7=
EXTT8=
EXTT9=
PLAYORDER=
